<svg width="16" height="17" viewBox="0 0 16 17" fill="none" xmlns="http://www.w3.org/2000/svg">
<path d="M10.6667 17C10.1778 17 9.75941 16.8152 9.41155 16.4456C9.0637 16.076 8.88948 15.6312 8.88889 15.1111V11.3333C8.88889 10.8139 9.06311 10.3694 9.41155 9.99978C9.76 9.63018 10.1784 9.44507 10.6667 9.44444H14.2222C14.7111 9.44444 15.1298 9.62955 15.4782 9.99978C15.8267 10.37 16.0006 10.8145 16 11.3333V15.1111C16 15.6306 15.8261 16.0754 15.4782 16.4456C15.1304 16.8158 14.7117 17.0006 14.2222 17H10.6667ZM10.6667 7.55555C10.1778 7.55555 9.75941 7.37076 9.41155 7.00117C9.0637 6.63157 8.88948 6.18674 8.88889 5.66667V1.88889C8.88889 1.36944 9.06311 0.924926 9.41155 0.555333C9.76 0.185741 10.1784 0.00062963 10.6667 0H14.2222C14.7111 0 15.1298 0.185111 15.4782 0.555333C15.8267 0.925556 16.0006 1.37007 16 1.88889V5.66667C16 6.18611 15.8261 6.63094 15.4782 7.00117C15.1304 7.37139 14.7117 7.55618 14.2222 7.55555H10.6667ZM1.77778 7.55555C1.28889 7.55555 0.870518 7.37076 0.522667 7.00117C0.174815 6.63157 0.000592593 6.18674 0 5.66667V1.88889C0 1.36944 0.174222 0.924926 0.522667 0.555333C0.871111 0.185741 1.28948 0.00062963 1.77778 0H5.33333C5.82222 0 6.24089 0.185111 6.58933 0.555333C6.93778 0.925556 7.1117 1.37007 7.11111 1.88889V5.66667C7.11111 6.18611 6.93718 6.63094 6.58933 7.00117C6.24148 7.37139 5.82281 7.55618 5.33333 7.55555H1.77778ZM1.77778 17C1.28889 17 0.870518 16.8152 0.522667 16.4456C0.174815 16.076 0.000592593 15.6312 0 15.1111V11.3333C0 10.8139 0.174222 10.3694 0.522667 9.99978C0.871111 9.63018 1.28948 9.44507 1.77778 9.44444H5.33333C5.82222 9.44444 6.24089 9.62955 6.58933 9.99978C6.93778 10.37 7.1117 10.8145 7.11111 11.3333V15.1111C7.11111 15.6306 6.93718 16.0754 6.58933 16.4456C6.24148 16.8158 5.82281 17.0006 5.33333 17H1.77778Z" fill="white"/>
</svg>
