<svg width="20" height="20" viewBox="0 0 20 20" fill="none" xmlns="http://www.w3.org/2000/svg">
<path d="M2 20C1.45 20 0.979333 19.794 0.588 19.3821C0.196667 18.9702 0.000666667 18.4744 0 17.8947V6.31579C0 5.73684 0.196 5.2414 0.588 4.82947C0.98 4.41754 1.45067 4.21123 2 4.21053H6V2.10526C6 1.52632 6.196 1.03088 6.588 0.618947C6.98 0.207018 7.45067 0.000701754 8 0H12C12.55 0 13.021 0.206316 13.413 0.618947C13.805 1.03158 14.0007 1.52702 14 2.10526V4.21053H18C18.55 4.21053 19.021 4.41684 19.413 4.82947C19.805 5.2421 20.0007 5.73754 20 6.31579V17.8947C20 18.4737 19.8043 18.9695 19.413 19.3821C19.0217 19.7947 18.5507 20.0007 18 20H2ZM8 4.21053H12V2.10526H8V4.21053Z" fill="white"/>
</svg>
